<?xml version="1.0" standalone="no"?>
<!DOCTYPE svg PUBLIC "-//W3C//DTD SVG 20010904//EN"
 "http://www.w3.org/TR/2001/REC-SVG-20010904/DTD/svg10.dtd">
<svg version="1.0" xmlns="http://www.w3.org/2000/svg"
 width="158.000000pt" height="158.000000pt" viewBox="0 0 158.000000 158.000000"
 preserveAspectRatio="xMidYMid meet">

<g transform="translate(0.000000,158.000000) scale(0.100000,-0.100000)"
fill="#000000" stroke="none">
<path d="M340 1210 c-162 -159 -292 -292 -288 -296 10 -9 56 34 356 329 134
132 240 243 235 247 -4 5 -141 -122 -303 -280z"/>
<path d="M140 1233 l0 -177 35 34 35 34 0 108 0 108 108 0 108 0 34 35 34 35
-177 0 -177 0 0 -177z"/>
<path d="M580 1375 l-34 -35 397 0 397 0 5 -22 c3 -13 5 -193 3 -401 -2 -207
0 -377 3 -377 3 0 20 18 37 39 l32 40 0 395 0 396 -403 0 -403 0 -34 -35z"/>
<path d="M173 968 l-33 -34 0 -402 0 -402 403 0 403 0 34 35 34 35 -400 2
-399 3 -5 398 -5 398 -32 -33z"/>
<path d="M370 936 l0 -45 137 -3 137 -3 16 -27 c13 -25 13 -31 0 -55 l-16 -28
-137 -3 -137 -3 0 -94 0 -95 36 0 c34 0 35 1 29 30 -14 63 -6 68 116 72 l111
3 33 37 c45 49 55 109 27 171 -32 73 -54 81 -214 85 l-138 4 0 -46z"/>
<path d="M777 974 c-4 -4 -7 -94 -7 -201 l0 -193 35 0 35 0 0 125 c0 69 3 125
8 125 4 0 31 -43 61 -95 47 -85 56 -95 81 -95 25 0 34 10 82 95 29 52 56 95
61 95 4 0 7 -56 7 -125 l0 -125 36 0 36 0 -4 198 -3 197 -40 0 -40 0 -65 -113
c-35 -61 -68 -111 -73 -109 -4 1 -36 52 -70 112 -59 105 -64 110 -98 113 -19
2 -38 0 -42 -4z"/>
<path d="M1205 351 c-154 -159 -281 -294 -283 -300 -2 -6 0 -11 5 -11 13 0
573 576 573 589 0 6 -4 11 -8 11 -5 0 -134 -130 -287 -289z"/>
<path d="M1382 447 c-31 -32 -32 -35 -32 -124 0 -50 -3 -98 -6 -107 -5 -13
-24 -16 -108 -16 l-102 0 -34 -35 -34 -35 177 0 177 0 0 175 c0 96 -1 175 -3
175 -2 0 -17 -15 -35 -33z"/>
</g>
</svg>
